<svg id="Layer_1" data-name="Layer 1" xmlns="http://www.w3.org/2000/svg" viewBox="0 0 240.17 146.06"><defs><style>.cls-1{fill:#decef3;}.cls-2,.cls-3,.cls-4{fill:#fff;stroke:#484848;stroke-width:2px;}.cls-2,.cls-3{stroke-miterlimit:10;}.cls-3,.cls-4{stroke-linecap:round;}.cls-4{stroke-linejoin:round;}</style></defs><title>connected</title><path class="cls-1" d="M207,92.31c-39.33-13.85-33.38,49.85-60.53,52.55s-31.67-44.72-63.69-42.27c-24.64,1.88-67.47,47-75.09-3.68-5.11-34,26.18-67,53.73-59.31,28.82,8,33.15,28.84,64.65,9.23C151.67,32.87,164.72,20,193.17,14.24c31.08-6.25,53,25.84,54.08,48.11s-19.32,37.33-40.26,30" transform="translate(-7.12 -7.04)"/><polygon class="cls-2" points="89.7 5.71 104.97 1.37 103.23 17.7 109.38 14.96 109.69 30.38 103.84 22.75 98.91 24.54 97.75 9.08 92.1 12.01 89.7 5.71"/><polygon class="cls-2" points="62.11 39.99 67.58 34.15 71.77 45.41 79.73 39.76 83.49 54.55 77 47.12 68.88 53.46 62.11 39.99"/><polygon class="cls-2" points="150.5 10.23 153.41 24.12 144.82 27.39 149.76 31.96 134.46 36.75 140.42 29.94 135.25 24.51 147.88 20.96 145.65 14.92 150.5 10.23"/><polygon class="cls-2" points="168.51 69.46 159.87 66.34 160.64 73.03 145.91 66.69 154.87 65.41 154.49 57.92 166.38 63.46 168.51 69.46"/><path class="cls-2" d="M102,74.51l7-26.25A4.63,4.63,0,0,1,114.69,45h0A4.63,4.63,0,0,1,118,50.65l-6.86,25.6M125,80.67l7-26.25a4.63,4.63,0,0,1,5.67-3.27h0A4.63,4.63,0,0,1,141,56.82l-6.86,25.6" transform="translate(-7.12 -7.04)"/><path class="cls-2" d="M112.6,125.35a18.5,18.5,0,0,0,21.79-13.29L140.59,89a5.29,5.29,0,0,0-3.74-6.48L100.4,72.71a5.28,5.28,0,0,0-6.47,3.74L87.73,99.56a18.5,18.5,0,0,0,11.59,22.19l0.31,7.79a2.86,2.86,0,0,0,2,2.5l3.84,1a2.86,2.86,0,0,0,3-1.16Zm-11,6.69,3.9,1s-1.55,6.12-1.93,9.43a83,83,0,0,0-.27,8.55,1,1,0,0,1-1.26,1l-1.35-.36A1.85,1.85,0,0,1,99.44,150a83.07,83.07,0,0,1,.27-8.55C100.08,138.17,101.64,132,101.64,132Z" transform="translate(-7.12 -7.04)"/><line class="cls-3" x1="94.32" y1="115.2" x2="101.52" y2="117.17"/><line class="cls-4" x1="91.7" y1="80.83" x2="119.85" y2="87.38"/><line class="cls-4" x1="91.7" y1="88.03" x2="119.85" y2="94.58"/><line class="cls-4" x1="88.43" y1="95.24" x2="116.58" y2="101.78"/></svg>