<?xml version="1.0" encoding="utf-8"?>
<!-- Generator: Adobe Illustrator 19.0.0, SVG Export Plug-In . SVG Version: 6.00 Build 0)  -->
<svg version="1.1" id="Layer_1" xmlns="http://www.w3.org/2000/svg" xmlns:xlink="http://www.w3.org/1999/xlink" x="0px" y="0px"
	 width="1920px" height="1080px" viewBox="585 -290 1920 1080" style="enable-background:new 585 -290 1920 1080;"
	 xml:space="preserve">
<style type="text/css">
	.st0{fill:#FFEEA7;}
	.st1{fill:#8C6698;}
	.st2{fill:#FCE579;}
	.st3{fill:#FED44F;}
	.st4{fill:#B48FC1;}
	.st5{opacity:0.1;fill:#231F20;}
	.st6{fill:none;stroke:#FCC338;stroke-width:8.4854;stroke-linecap:round;stroke-linejoin:round;}
	.st7{fill:none;stroke:#FED44F;stroke-width:4.2427;stroke-linecap:round;stroke-linejoin:round;}
	.st8{fill-rule:evenodd;clip-rule:evenodd;fill:#FED44F;}
	.st9{fill-rule:evenodd;clip-rule:evenodd;fill:#8C6698;}
	.st10{fill:#FCC338;}
</style>
<title>emptystate-discounts</title>
<path class="st0" d="M1984.9,286.5c-166.7-58.5-141.7,211.7-256.7,223.2c-115,11.5-134.5-189.6-270.3-179.5
	c-104.4,8.1-286.4,199.4-318.6-15.7c-21.6-144.3,111.2-284.3,227.8-251.6c122.2,33.9,140.9,122.2,274.5,39
	c108.6-67.9,163.8-122.2,284.7-146.8c131.9-26.3,224.9,109.5,229.5,204.1C2160.6,253.9,2073.6,317.9,1984.9,286.5"/>
<path class="st1" d="M1553.6,468.5c0,0-0.1,0.3-0.3,1c-0.2,0.7-0.4,1.8-0.7,3.2c-0.6,2.8-1.4,7.1-2,12.6c-0.7,5.5-1.2,12.2-1.2,20
	c0,7.7,0.5,16.5,1.9,25.9c0.8,4.7,1.7,9.5,3,14.5c1.3,4.9,3,10,5,15c4,10.1,9.5,20.2,16.8,29.7c1.8,2.4,3.7,4.6,5.7,7
	c2.1,2.2,4.1,4.5,6.3,6.6c2.2,2.2,4.5,4.2,6.9,6.3c1.2,1,2.4,2,3.6,2.9l1.8,1.5l1.9,1.4c5,3.8,10.5,7.1,16.1,10.4l4.3,2.3l2.1,1.1
	l2.2,1l4.4,2.1c1.5,0.7,3,1.3,4.5,1.9c12,5.1,24.5,9.1,37,12c12.6,3,25.2,5.1,37.4,6.5c6.1,0.8,12.2,1.2,18.1,1.7
	c5.9,0.3,11.8,0.8,17.4,0.9c2.8,0.1,5.6,0.2,8.4,0.2c2.8,0,5.5,0,8.2,0c5.4,0.1,10.5-0.1,15.5-0.2c9.9-0.3,19-0.7,27.1-1.3
	c2-0.1,4-0.3,5.9-0.4c1.9-0.1,3.7-0.3,5.4-0.5c3.5-0.3,6.7-0.6,9.6-0.8c5.8-0.6,10.3-1.1,13.4-1.4c3.1-0.3,4.7-0.5,4.7-0.5
	s-1.6,0.2-4.7,0.7c-3.1,0.4-7.6,1.2-13.3,1.9c-2.9,0.4-6.1,0.8-9.5,1.2c-1.7,0.2-3.5,0.5-5.4,0.7c-1.9,0.2-3.8,0.4-5.8,0.6
	c-8,0.9-17.2,1.7-27.1,2.4c-5,0.3-10.2,0.7-15.5,0.8c-2.7,0.1-5.4,0.2-8.2,0.3c-2.8,0-5.6,0.1-8.5,0.1c-5.7,0.1-11.6-0.1-17.6-0.2
	c-6-0.3-12.2-0.5-18.4-1c-12.5-1-25.4-2.5-38.4-5.1c-13-2.6-26-6.1-38.7-10.9c-1.6-0.6-3.2-1.2-4.7-1.8l-4.7-2l-2.3-1l-2.3-1.1
	l-4.6-2.2c-6-3.2-11.9-6.5-17.5-10.3l-2.1-1.4l-2-1.5c-1.3-1-2.7-2-4-3c-2.6-2.1-5.2-4.2-7.7-6.5c-2.5-2.2-4.8-4.6-7.2-6.9
	c-2.2-2.4-4.5-4.8-6.5-7.3c-8.4-10-14.9-20.9-19.7-31.8c-2.4-5.5-4.4-10.9-6.1-16.3c-1.6-5.4-2.9-10.6-4-15.7
	c-2-10.2-2.9-19.7-3.3-28.1c-0.3-8.4,0-15.8,0.5-21.9c0.5-6.1,1.2-10.8,1.7-14.1c0.3-1.6,0.5-2.9,0.7-3.8c0.2-0.9,0.3-1.4,0.3-1.4
	L1553.6,468.5z"/>
<polygon id="XMLID_90_" class="st2" points="1507.6,172.4 1721,228.8 1690.9,344.2 1476.2,288.6 "/>
<polygon class="st3" points="1719.8,233.9 1721,228.8 1507.6,172.4 1505.9,177.5 "/>
<path id="XMLID_89_" class="st4" d="M1527.1,421.9l-6.8,26.3c-2.1,8.1,3.8,18.2,12.7,21.6l24.2,6.4c10.2,2.5,20.4-3.4,22.9-13.6
	l6.4-24.2L1527.1,421.9z"/>
<g id="XMLID_102_">
	<path id="XMLID_385_" class="st1" d="M1565.8,476.2c5.9-1.7,11.5-6.8,14.4-13.6l6.4-24.2l-60.2-14.4L1565.8,476.2z"/>
</g>
<polygon id="XMLID_87_" class="st3" points="1505.5,420.6 1600.1,443.9 1690.9,344.2 1476.2,288.6 "/>
<path class="st3" d="M1675.1-64.3c0,0,0.1-0.2,0.2-0.7c0.1-0.5,0.3-1.3,0.5-2.2c0.4-2,1-5,1.7-8.8c0.6-3.8,1.3-8.5,1.8-13.9
	c0.5-5.4,0.9-11.5,0.8-18.1c0-6.6-0.5-13.8-1.8-21.2c-0.6-3.7-1.5-7.4-2.6-11.2c-1.1-3.7-2.5-7.4-4.2-11c-1.7-3.6-3.8-7.1-6.2-10.3
	c-2.4-3.2-5.3-6.2-8.5-8.8c-3.2-2.6-6.8-4.8-10.7-6.6c-3.9-1.8-8-3.2-12.2-4.2c-8.5-1.9-17.5-2.4-26.3-2c-8.9,0.5-17.6,1.8-25.9,3.6
	c-2.1,0.4-4.2,0.9-6.2,1.4c-2,0.5-4.1,1-6.1,1.6c-2,0.6-4,1.1-5.9,1.7c-1.9,0.6-3.8,1.2-5.7,1.8c-3.8,1.1-7.4,2.5-10.9,3.7
	c-3.5,1.2-6.9,2.6-10.1,3.8c-3.2,1.3-6.3,2.5-9.2,3.7c-2.9,1.2-5.6,2.4-8.2,3.5c-2.6,1.1-5,2.2-7.2,3.2c-2.2,1-4.2,1.9-6.1,2.8
	c-7.3,3.5-11.4,5.5-11.4,5.5s4-2.2,11.1-6.2c1.8-0.9,3.8-2,5.9-3.1c2.2-1.1,4.5-2.4,7-3.6c2.5-1.3,5.2-2.6,8-4
	c2.9-1.4,5.9-2.8,9-4.3c3.2-1.4,6.5-2.9,9.9-4.4c3.5-1.4,7-3,10.8-4.3c1.9-0.7,3.8-1.4,5.7-2.1c1.9-0.7,3.9-1.3,5.9-2
	c2-0.7,4-1.3,6.1-1.9c2.1-0.6,4.1-1.3,6.3-1.8c8.5-2.3,17.4-4.3,26.7-5.3c9.3-1,18.9-1.1,28.6,0.5c4.8,0.8,9.6,2.2,14.2,3.9
	c4.6,1.8,9,4.2,13.1,7.1c4,2.9,7.7,6.2,10.9,9.9c3.2,3.7,5.9,7.7,8.1,11.8c2.3,4.1,4.1,8.3,5.6,12.5c1.5,4.2,2.7,8.4,3.6,12.5
	c1.9,8.2,2.8,16,3.3,23.2c0.5,7.2,0.4,13.8,0.2,19.7c-0.2,5.8-0.6,10.9-1.1,15.1c-0.5,4.2-0.9,7.5-1.3,9.7c-0.2,1.1-0.3,2-0.4,2.6
	c-0.1,0.6-0.2,1-0.2,1L1675.1-64.3z"/>
<polygon id="XMLID_8_" class="st4" points="1721,228.8 1507.6,172.4 1537.9,59.8 1752.5,115.3 "/>
<circle class="st5" cx="1704.3" cy="240.8" r="80.2"/>
<path id="XMLID_7_" class="st2" d="M1701.6-17.9l6.8-26.3c2.1-8.1-3.8-18.2-12.7-21.6l-24.2-6.4c-10.2-2.5-20.4,3.4-22.9,13.6
	l-6.4,24.2L1701.6-17.9z"/>
<g id="XMLID_5_">
	<path id="XMLID_6_" class="st3" d="M1663-72.2c-5.9,1.7-11.5,6.8-14.4,13.6l-6.4,24.2l60.2,14.4L1663-72.2z"/>
</g>
<polygon id="XMLID_4_" class="st1" points="1723.3,-16.6 1628.7,-39.9 1537.9,59.8 1752.5,115.3 "/>
<path class="st6" d="M1674.5,172.2"/>
<path class="st6" d="M1584.1,149.7"/>
<path class="st7" d="M1674.5,176.4"/>
<path class="st7" d="M1584.1,153.9"/>
<path id="XMLID_3515_" class="st8" d="M1757.3-48.9c0,0,7.8-1.7,13.7-7.4c4.4-4.2,7-13.3,7-13.3s1.5,8.2,6.9,13.2
	c4.9,4.5,13.9,7.5,13.9,7.5s-7.6,0.9-13.3,7c-5.7,6.1-7.4,13.7-7.4,13.7s-2.6-9.6-7-13.3C1764.9-46.7,1757.3-48.9,1757.3-48.9z"/>
<circle id="XMLID_3514_" class="st8" cx="2126" cy="-163.8" r="14.4"/>
<circle id="XMLID_3513_" class="st8" cx="1155.6" cy="-224" r="14.4"/>
<circle id="XMLID_3512_" class="st8" cx="1297" cy="546.4" r="11.2"/>
<circle id="XMLID_3511_" class="st8" cx="1149.1" cy="67.5" r="11.2"/>
<circle id="XMLID_3510_" class="st8" cx="1732.3" cy="-213.2" r="10.9"/>
<path id="XMLID_3509_" class="st9" d="M1839.2,638.8c0,0,7.4-1.6,13-7c4.1-4,6.6-12.6,6.6-12.6s1.4,7.7,6.5,12.5
	c4.6,4.3,13.1,7.1,13.1,7.1s-7.2,0.8-12.6,6.6c-5.4,5.7-7,13-7,13s-2.5-9.1-6.6-12.6C1846.4,640.9,1839.2,638.8,1839.2,638.8z"/>
<path id="XMLID_3508_" class="st8" d="M2064,142.5c0,0,8.5-1.8,14.9-8c4.7-4.6,7.6-14.5,7.6-14.5s1.6,8.9,7.4,14.3
	c5.3,4.9,15,8.2,15,8.2s-8.3,1-14.5,7.6c-6.2,6.6-8,14.9-8,14.9s-2.9-10.5-7.6-14.4C2072.3,144.9,2064,142.5,2064,142.5z"/>
<path id="XMLID_3507_" class="st8" d="M2070.6,621.6c0,0,4.7-7.3,4.9-16.2c0.1-6.6-4.9-15.6-4.9-15.6s7.4,5.2,15.4,4.9
	c7.2-0.3,16.4-4.9,16.4-4.9s-5.2,6.5-4.9,15.6c0.3,9,4.9,16.2,4.9,16.2s-9.4-5.4-15.6-4.9C2078.1,617.4,2070.6,621.6,2070.6,621.6z"
	/>
<path id="XMLID_3506_" class="st8" d="M1158,605.7c0,0,8.5-1.8,14.9-8c4.7-4.6,7.6-14.5,7.6-14.5s1.6,8.9,7.4,14.3
	c5.3,4.9,15,8.2,15,8.2s-8.3,1-14.5,7.6c-6.2,6.6-8,14.9-8,14.9s-2.9-10.5-7.6-14.4C1166.3,608,1158,605.7,1158,605.7z"/>
<path id="XMLID_3505_" class="st8" d="M1400.8,492.1c0,0,8.5-1.8,14.9-8c4.7-4.6,7.6-14.5,7.6-14.5s1.6,8.9,7.4,14.3
	c5.3,4.9,15,8.2,15,8.2s-8.3,1-14.5,7.6c-6.2,6.6-8,14.9-8,14.9s-2.9-10.5-7.6-14.4C1409.1,494.5,1400.8,492.1,1400.8,492.1z"/>
<path id="XMLID_3504_" class="st8" d="M1154.6,469.6c0,0,8.5-1.8,14.9-8c4.7-4.6,7.6-14.5,7.6-14.5s1.6,8.9,7.4,14.3
	c5.3,4.9,15,8.2,15,8.2s-8.3,1-14.5,7.6c-6.2,6.6-8,14.9-8,14.9s-2.9-10.5-7.6-14.4C1162.8,472,1154.6,469.6,1154.6,469.6z"/>
<path id="XMLID_3503_" class="st8" d="M1442.5-135.9c0,0,7.8-1.7,13.7-7.4c4.4-4.2,7-13.3,7-13.3s1.5,8.2,6.9,13.2
	c4.9,4.5,13.9,7.5,13.9,7.5s-7.6,0.9-13.3,7c-5.7,6.1-7.4,13.7-7.4,13.7s-2.6-9.6-7-13.3C1450.1-133.7,1442.5-135.9,1442.5-135.9z"
	/>
<path id="XMLID_3502_" class="st8" d="M1931.9-99.3c0,0,5.1-1.1,8.9-4.8c2.8-2.7,4.5-8.6,4.5-8.6s0.9,5.3,4.4,8.5
	c3.1,2.9,9,4.9,9,4.9s-4.9,0.6-8.6,4.5c-3.7,3.9-4.8,8.9-4.8,8.9s-1.7-6.2-4.5-8.6C1936.8-97.9,1931.9-99.3,1931.9-99.3z"/>
<path id="XMLID_3501_" class="st8" d="M1252.4-155.4c0,0,4.9-1,8.6-4.6c2.7-2.6,4.4-8.3,4.4-8.3s0.9,5.1,4.3,8.2
	c3,2.8,8.6,4.7,8.6,4.7s-4.8,0.6-8.3,4.4c-3.5,3.8-4.6,8.6-4.6,8.6s-1.6-6-4.4-8.3C1257.2-154,1252.4-155.4,1252.4-155.4z"/>
<circle id="XMLID_3451_" class="st8" cx="1275.6" cy="309.5" r="11.2"/>
<path id="XMLID_3450_" class="st8" d="M1368.8,433c0,0,5.3-1.1,9.3-5c3-2.9,4.7-9,4.7-9s1,5.5,4.6,8.9c3.3,3.1,9.4,5.1,9.4,5.1
	s-5.2,0.6-9,4.7c-3.8,4.1-5,9.3-5,9.3s-1.8-6.5-4.7-9C1373.9,434.5,1368.8,433,1368.8,433z"/>
<circle class="st0" cx="1715.6" cy="231.1" r="66"/>
<g>
	<path class="st10" d="M1710.8,256.8c-2,0-4.1-0.8-5.7-2.3l-17.4-17.4c-3.1-3.1-3.1-8.2,0-11.3c3.1-3.1,8.2-3.1,11.3,0l11.8,11.8
		l29.2-29.2c3.1-3.1,8.2-3.1,11.3,0c3.1,3.1,3.1,8.2,0,11.3l-34.8,34.8C1714.9,256,1712.8,256.8,1710.8,256.8z"/>
</g>
</svg>
